<?xml version="1.0" encoding="UTF-8" standalone="no"?>
<svg
   xmlns="http://www.w3.org/2000/svg"
   width="42.074825"
   height="42.074825"
   viewBox="0 0 42.07 42.07">
  <circle
     fill="#ffdcff"
     cx="28.453413"
     cy="8.6918793"
     r="17.037413"
     id="windowText"
     transform="rotate(28.013264)" />
  <path
     fill="#231100"
     d="m 24.857664,6.3193433 -3.275165,7.8270837 -5.551724,2.275648 -7.8267575,-3.275776 4.7792745,11.657697 c 1.884683,4.597061 7.111422,6.719443 11.708495,4.83475 4.597072,-1.884691 6.830166,-7.065268 4.945484,-11.662329 z m 0.274461,11.7081897 c 0.353514,0.14794 0.65003,0.431635 0.807833,0.816528 0.315593,0.769791 -0.04692,1.640044 -0.818866,1.956534 -0.769794,0.315587 -1.640929,-0.04906 -1.956531,-0.818859 -0.315602,-0.769795 0.04908,-1.64094 0.818855,-1.956536 0.38491,-0.157795 0.795183,-0.145607 1.148709,0.0023 z m -6.939307,2.84494 c 0.353505,0.147936 0.650368,0.431021 0.808179,0.815921 0.315602,0.769795 -0.04725,1.640668 -0.819196,1.957153 -0.769808,0.315592 -1.640946,-0.04907 -1.95654,-0.818863 -0.315602,-0.769795 0.04939,-1.641563 0.819196,-1.957154 0.384879,-0.157803 0.794842,-0.144988 1.148361,0.0029 z m 10.830091,6.797015 c -3.595258,3.100252 -8.462056,3.784124 -12.07134,1.760381 -0.545486,0.596787 -1.885347,2.121649 -3.043317,4.35023 a 20.037414,20.037414 0 0 0 19.962555,-1.506188 c -1.76448,-2.19221 -3.89523,-4.081833 -4.847898,-4.604423 z"
     id="meowText" />
</svg>
